HIERARCHY
ROOT Hips
{
	OFFSET 53.088799 -10.543715 96.063499
	CHANNELS 6 Xposition Yposition Zposition Xrotation Yrotation Zrotation
	JOINT spine
	{
		OFFSET 0.000000 -0.467661 8.132492
		CHANNELS 3 Xrotation Yrotation Zrotation
		JOINT spine1
		{
			OFFSET 0.000000 -0.000002 10.349800
			CHANNELS 3 Xrotation Yrotation Zrotation
			JOINT spine2
			{
				OFFSET 0.000000 -0.000001 9.916992
				CHANNELS 3 Xrotation Yrotation Zrotation
				JOINT Neck
				{
					OFFSET 0.000000 -1.213904 25.460999
					CHANNELS 3 Xrotation Yrotation Zrotation
					JOINT Head
					{
						OFFSET 0.000000 -0.000001 7.692444
						CHANNELS 3 Xrotation Yrotation Zrotation
						End Site
						{
							OFFSET 0.000000 6.140627 18.619995
						}
					}
				}
				JOINT RightShoulder
				{
					OFFSET -4.175751 0.581443 10.709595
					CHANNELS 3 Xrotation Yrotation Zrotation
					JOINT RightArm
					{
						OFFSET 0.000000 -0.000002 14.046600
						CHANNELS 3 Xrotation Yrotation Zrotation
						JOINT RightArmRoll
						{
							OFFSET 0.000000 -0.000002 7.090988
							CHANNELS 3 Xrotation Yrotation Zrotation
							JOINT RightForeArm
							{
								OFFSET 0.000000 -0.000003 20.653503
								CHANNELS 3 Xrotation Yrotation Zrotation
								JOINT RightForeArmRoll
								{
									OFFSET 0.000000 -0.000002 7.957184
									CHANNELS 3 Xrotation Yrotation Zrotation
									JOINT RightHand
									{
										OFFSET 0.000000 -0.000002 15.968292
										CHANNELS 3 Xrotation Yrotation Zrotation
										End Site
										{
											OFFSET 0.000000 0.000000 0.100006
										}
									}
								}
							}
						}
					}
				}
				JOINT LeftShoulder
				{
					OFFSET 4.175751 0.581443 10.709595
					CHANNELS 3 Xrotation Yrotation Zrotation
					JOINT LeftArm
					{
						OFFSET 0.000000 -0.000002 14.046600
						CHANNELS 3 Xrotation Yrotation Zrotation
						JOINT LeftArmRoll
						{
							OFFSET 0.000000 -0.000002 7.090988
							CHANNELS 3 Xrotation Yrotation Zrotation
							JOINT LeftForeArm
							{
								OFFSET 0.000000 -0.000003 20.653503
								CHANNELS 3 Xrotation Yrotation Zrotation
								JOINT LeftForeArmRoll
								{
									OFFSET 0.000000 -0.000002 7.957184
									CHANNELS 3 Xrotation Yrotation Zrotation
									JOINT LeftHand
									{
										OFFSET 0.000000 -0.000002 15.968292
										CHANNELS 3 Xrotation Yrotation Zrotation
										End Site
										{
											OFFSET 0.000000 0.000000 0.100006
										}
									}
								}
							}
						}
					}
				}
			}
		}
	}
	JOINT RightUpLeg
	{
		OFFSET -7.208340 1.108840 -1.321823
		CHANNELS 3 Xrotation Yrotation Zrotation
		JOINT RightUpLegRoll
		{
			OFFSET 0.000000 -0.000003 18.723801
			CHANNELS 3 Xrotation Yrotation Zrotation
			JOINT RightLeg
			{
				OFFSET 0.000000 0.000004 -23.186600
				CHANNELS 3 Xrotation Yrotation Zrotation
				JOINT RightLegRoll
				{
					OFFSET 0.000000 -0.000004 23.262398
					CHANNELS 3 Xrotation Yrotation Zrotation
					JOINT RightFoot
					{
						OFFSET 0.000000 -0.000004 19.362106
						CHANNELS 3 Xrotation Yrotation Zrotation
						JOINT RightToeBase
						{
							OFFSET 0.000000 -0.000002 16.185699
							CHANNELS 3 Xrotation Yrotation Zrotation
							End Site
							{
								OFFSET 0.006859 0.903521 7.838623
							}
						}
					}
				}
			}
		}
	}
	JOINT LeftUpLeg
	{
		OFFSET 7.208340 1.108840 -1.321823
		CHANNELS 3 Xrotation Yrotation Zrotation
		JOINT LeftUpLegRoll
		{
			OFFSET 0.000000 -0.000003 18.723900
			CHANNELS 3 Xrotation Yrotation Zrotation
			JOINT LeftLeg
			{
				OFFSET 0.000000 -0.000004 23.186493
				CHANNELS 3 Xrotation Yrotation Zrotation
				JOINT LeftLegRoll
				{
					OFFSET 0.000000 -0.000004 23.477509
					CHANNELS 3 Xrotation Yrotation Zrotation
					JOINT LeftFoot
					{
						OFFSET 0.000000 -0.000004 19.147003
						CHANNELS 3 Xrotation Yrotation Zrotation
						JOINT LeftToeBase
						{
							OFFSET 0.000000 -0.000002 16.185699
							CHANNELS 3 Xrotation Yrotation Zrotation
							End Site
							{
								OFFSET -0.030746 0.903521 7.838623
							}
						}
					}
				}
			}
		}
	}
}
MOTION
Frames: 9
Frame Time: 0.041667
52.698700 -9.189085 96.000809 -1.883032 0.529821 2.031979 -1.658554 -0.470573 0.064984 0.686127 -0.940546 0.098710 2.331284 -0.940285 0.109916 11.907585 7.265212 -5.127089 -2.982317 -7.749769 -4.946334 -16.504338 -57.730856 -19.483446 -41.543775 -119.101560 -20.668038 -0.000003 -0.000001 -0.000006 1.021227 -8.122029 -0.551458 -0.000003 -0.000001 -3.000000 -5.000214 -7.998981 0.000130 -17.464594 64.016358 20.683447 -45.663489 113.283134 36.389639 0.000000 -0.000000 0.000004 0.297294 10.255765 0.609224 0.000002 0.000020 3.000001 -5.000210 7.998742 -0.000143 -3.215857 -173.228583 3.201330 -179.999991 0.000005 -0.934993 168.926916 -1.619303 -0.670864 -0.000001 -0.000000 0.015448 69.710318 6.035092 4.338457 25.458270 -7.355613 0.002025 -2.923283 172.758324 -1.665891 -0.000020 -0.000004 -0.906337 -13.011058 1.453770 0.769139 -0.000007 -0.000001 -0.129498 72.160348 -6.014668 -4.378052 25.458774 7.355612 -0.002703 
52.695000 -9.191547 96.000290 -1.891669 0.528012 2.032869 -1.656172 -0.470582 0.065019 0.690894 -0.940557 0.100471 2.336054 -0.940305 0.111683 11.898236 7.273801 -5.128838 -2.973961 -7.755859 -4.948169 -16.497805 -57.735910 -19.475731 -41.501630 -119.078529 -20.677834 -0.000003 -0.000002 -0.000008 1.112462 -8.162442 -0.548161 -0.000000 -0.000001 -3.000000 -5.000212 -7.998981 0.000130 -17.445353 64.029554 20.661442 -45.651355 113.260191 36.391644 0.000001 -0.000000 0.000003 0.354044 10.262008 0.604732 0.000005 0.000020 3.000002 -5.000209 7.998742 -0.000142 -3.206282 -173.226520 3.204427 -179.999991 0.000005 -0.934993 168.925126 -1.619293 -0.670914 -0.000001 0.000000 0.015448 69.712428 6.034797 4.339186 25.458268 -7.355614 0.002025 -2.912139 172.760264 -1.667957 -0.000021 -0.000005 -0.906338 -13.010068 1.455314 0.769138 -0.000007 -0.000001 -0.129498 72.161659 -6.014817 -4.376805 25.458770 7.355610 -0.002702 
52.691700 -9.203329 96.004807 -1.900150 0.526203 2.033907 -1.653795 -0.470597 0.064998 0.695668 -0.940571 0.102166 2.340826 -0.940334 0.113383 11.887990 7.282835 -5.130581 -2.964590 -7.762414 -4.949978 -16.491611 -57.740411 -19.468425 -41.462527 -119.056672 -20.687890 -0.000002 -0.000001 -0.000007 1.198813 -8.200829 -0.544817 -0.000002 -0.000001 -2.999999 -5.000212 -7.998981 0.000132 -17.427132 64.042517 20.640598 -45.640697 113.239120 36.393058 -0.000002 -0.000000 0.000005 0.406518 10.267447 0.600695 0.000003 0.000020 3.000000 -5.000213 7.998741 -0.000143 -3.196899 -173.223474 3.207468 -179.999991 0.000006 -0.934993 168.923419 -1.619284 -0.670962 -0.000001 0.000001 0.015448 69.714552 6.034532 4.339925 25.458272 -7.355613 0.002025 -2.901262 172.762190 -1.669968 -0.000020 -0.000004 -0.906337 -13.009075 1.456899 0.769139 -0.000007 -0.000001 -0.129498 72.162882 -6.014968 -4.375563 25.458770 7.355610 -0.002702 
52.702900 -9.202979 96.005692 -1.908530 0.524392 2.035034 -1.651406 -0.470614 0.064937 0.700447 -0.940587 0.103814 2.345606 -0.940368 0.115037 11.877046 7.292175 -5.132300 -2.954505 -7.769307 -4.951765 -16.485691 -57.744666 -19.461419 -41.424148 -119.036291 -20.696341 -0.000005 -0.000001 -0.000009 1.281757 -8.237796 -0.541418 -0.000003 -0.000002 -3.000003 -5.000212 -7.998983 0.000128 -17.409664 64.055386 20.620619 -45.632412 113.218930 36.395534 0.000000 -0.000001 0.000004 0.455997 10.272283 0.596980 0.000004 0.000021 3.000002 -5.000212 7.998742 -0.000145 -3.187618 -173.221411 3.210563 -179.999991 0.000005 -0.934993 168.921629 -1.620252 -0.671205 -0.000001 0.000001 0.015448 69.716663 6.034237 4.340657 25.458268 -7.355614 0.002026 -2.890566 172.764130 -1.671936 -0.000020 -0.000004 -0.906337 -13.008186 1.458504 0.769138 -0.000007 -0.000001 -0.129498 72.164090 -6.015117 -4.374320 25.458770 7.355611 -0.002702 
52.700100 -9.200777 96.004692 -1.916838 0.522580 2.036230 -1.649015 -0.470635 0.064854 0.705230 -0.940604 0.105436 2.350387 -0.940406 0.116664 11.865604 7.301704 -5.134009 -2.944006 -7.776391 -4.953542 -16.479877 -57.748703 -19.454556 -41.388040 -119.015609 -20.706197 -0.000001 -0.000001 -0.000007 1.362758 -8.273960 -0.537944 -0.000004 -0.000001 -2.999997 -5.000215 -7.998981 0.000128 -17.392645 64.068199 20.601143 -45.625602 113.199307 36.398686 -0.000001 0.000000 0.000004 0.503769 10.276713 0.593445 0.000004 0.000020 3.000001 -5.000209 7.998743 -0.000144 -3.178424 -173.218351 3.213603 -179.999991 0.000006 -0.934993 168.919813 -1.620243 -0.671256 -0.000002 0.000001 0.015448 69.718780 6.033939 4.341389 25.458263 -7.355615 0.002026 -2.879986 172.765059 -1.673829 -0.000021 -0.000005 -0.906337 -13.007294 1.460134 0.769140 -0.000007 -0.000001 -0.129498 72.165299 -6.015232 -4.373074 25.458770 7.355610 -0.002703 
52.703602 -9.205108 96.006401 -1.925140 0.520769 2.037435 -1.646626 -0.470655 0.064765 0.710014 -0.940621 0.107052 2.355177 -0.940443 0.118285 11.854162 7.311271 -5.135712 -2.933416 -7.783514 -4.955307 -16.474088 -57.752630 -19.447717 -41.351034 -118.995815 -20.714528 -0.000005 -0.000002 -0.000008 1.443277 -8.309930 -0.534386 -0.000002 -0.000001 -2.999998 -5.000212 -7.998981 0.000130 -17.375639 64.080903 20.581699 -45.617123 113.180367 36.399854 0.000000 0.000001 0.000003 0.551113 10.281135 0.589948 0.000003 0.000020 3.000001 -5.000209 7.998741 -0.000144 -3.169233 -173.216288 3.216699 -179.999991 0.000005 -0.934993 168.918009 -1.620232 -0.671307 -0.000001 0.000000 0.015448 69.720877 6.033608 4.342115 25.458267 -7.355613 0.002025 -2.869428 172.766985 -1.675767 -0.000020 -0.000004 -0.906337 -13.006303 1.461758 0.769136 -0.000008 -0.000001 -0.129498 72.166502 -6.015352 -4.371928 25.458769 7.355613 -0.002703 
52.707401 -9.198477 96.003403 -1.933470 0.518956 2.038609 -1.644234 -0.470674 0.064687 0.714796 -0.940637 0.108680 2.359958 -0.940480 0.119919 11.842924 7.320747 -5.137427 -2.923024 -7.790556 -4.957081 -16.468238 -57.756681 -19.440798 -41.313325 -118.975775 -20.722842 -0.000002 -0.000002 -0.000008 1.524792 -8.346305 -0.530701 -0.000001 -0.000002 -3.000001 -5.000211 -7.998984 0.000129 -17.358460 64.093723 20.562051 -45.609930 113.160593 36.402798 -0.000000 0.000000 0.000006 0.599311 10.285748 0.586353 0.000003 0.000020 3.000001 -5.000211 7.998741 -0.000143 -3.160016 -173.213229 3.219733 -179.999991 0.000006 -0.934993 168.916316 -1.620222 -0.670357 -0.000000 0.000000 0.015448 69.722899 6.033369 4.342762 25.458270 -7.355614 0.002025 -2.858810 172.768925 -1.677713 -0.000020 -0.000004 -0.906337 -13.005414 1.463382 0.769137 -0.000007 -0.000000 -0.129498 72.167704 -6.015472 -4.370682 25.458774 7.355610 -0.002702 
52.706200 -9.202519 96.004700 -1.941869 0.517145 2.039714 -1.641855 -0.470692 0.064637 0.719574 -0.940651 0.110342 2.364739 -0.940511 0.121587 11.832179 7.330002 -5.139141 -2.913141 -7.797358 -4.958861 -16.462240 -57.761045 -19.433726 -41.275294 -118.954452 -20.732385 -0.000005 -0.000001 -0.000005 1.608788 -8.383711 -0.526859 -0.000003 -0.000001 -3.000000 -5.000212 -7.998984 0.000130 -17.340708 64.106612 20.541746 -45.600873 113.140137 36.404843 0.000000 -0.000000 0.000004 0.649655 10.290652 0.582510 0.000003 0.000020 3.000001 -5.000209 7.998742 -0.000144 -3.150716 -173.211179 3.222833 -179.999991 0.000005 -0.934993 168.914512 -1.621192 -0.670600 -0.000002 0.000001 0.015448 69.725003 6.033075 4.343497 25.458267 -7.355613 0.002026 -2.848070 172.769840 -1.679644 -0.000020 -0.000004 -0.906337 -13.004522 1.464984 0.769138 -0.000008 -0.000000 -0.129498 72.168913 -6.015619 -4.369440 25.458769 7.355610 -0.002702 
52.705502 -9.209162 96.000504 -1.950396 0.515334 2.040699 -1.639462 -0.470704 0.064633 0.724345 -0.940662 0.112058 2.369510 -0.940535 0.123307 11.822132 7.338917 -5.140855 -2.904068 -7.803769 -4.960670 -16.455908 -57.765662 -19.426248 -41.234740 -118.932226 -20.741715 -0.000002 -0.000000 -0.000007 1.696705 -8.422760 -0.522814 -0.000003 -0.000000 -2.999999 -5.000215 -7.998981 0.000129 -17.322067 64.119610 20.520424 -45.589399 113.118786 36.405970 -0.000001 -0.000000 0.000003 0.703421 10.296341 0.578281 0.000004 0.000020 3.000001 -5.000209 7.998742 -0.000144 -3.141266 -173.208120 3.225886 -179.999991 0.000005 -0.934993 168.912709 -1.621182 -0.670651 -0.000001 0.000000 0.015448 69.727113 6.032777 4.344327 25.458268 -7.355615 0.002026 -2.837108 172.771780 -1.681671 -0.000020 -0.000004 -0.906337 -13.003532 1.466560 0.769138 -0.000007 -0.000001 -0.129498 72.170210 -6.015741 -4.368291 25.458775 7.355611 -0.002702 
